<svg width="517" height="95" viewBox="0 0 517 95" fill="none" xmlns="http://www.w3.org/2000/svg">
<rect width="517" height="95" fill="#FCD980"/>
<path opacity="0.8" d="M37.688 66.6C37.688 65.6933 37.8693 64.904 38.232 64.232C38.5947 63.5493 39.096 63.0213 39.736 62.648C40.3867 62.2747 41.128 62.088 41.96 62.088C43.0373 62.088 43.9227 62.3493 44.616 62.872C45.32 63.3947 45.784 64.12 46.008 65.048H44.44C44.2907 64.5147 43.9973 64.0933 43.56 63.784C43.1333 63.4747 42.6 63.32 41.96 63.32C41.128 63.32 40.456 63.608 39.944 64.184C39.432 64.7493 39.176 65.5547 39.176 66.6C39.176 67.656 39.432 68.472 39.944 69.048C40.456 69.624 41.128 69.912 41.96 69.912C42.6 69.912 43.1333 69.7627 43.56 69.464C43.9867 69.1653 44.28 68.7387 44.44 68.184H46.008C45.7733 69.08 45.304 69.8 44.6 70.344C43.896 70.8773 43.016 71.144 41.96 71.144C41.128 71.144 40.3867 70.9573 39.736 70.584C39.096 70.2107 38.5947 69.6827 38.232 69C37.8693 68.3173 37.688 67.5173 37.688 66.6ZM51.7748 71.144C50.9534 71.144 50.2068 70.9573 49.5348 70.584C48.8734 70.2107 48.3508 69.6827 47.9668 69C47.5934 68.3067 47.4068 67.5067 47.4068 66.6C47.4068 65.704 47.5988 64.9147 47.9828 64.232C48.3774 63.5387 48.9108 63.0107 49.5828 62.648C50.2548 62.2747 51.0068 62.088 51.8388 62.088C52.6708 62.088 53.4228 62.2747 54.0948 62.648C54.7668 63.0107 55.2948 63.5333 55.6788 64.216C56.0734 64.8987 56.2708 65.6933 56.2708 66.6C56.2708 67.5067 56.0681 68.3067 55.6628 69C55.2681 69.6827 54.7294 70.2107 54.0468 70.584C53.3641 70.9573 52.6068 71.144 51.7748 71.144ZM51.7748 69.864C52.2974 69.864 52.7881 69.7413 53.2468 69.496C53.7054 69.2507 54.0734 68.8827 54.3508 68.392C54.6388 67.9013 54.7828 67.304 54.7828 66.6C54.7828 65.896 54.6441 65.2987 54.3668 64.808C54.0894 64.3173 53.7268 63.9547 53.2788 63.72C52.8308 63.4747 52.3454 63.352 51.8228 63.352C51.2894 63.352 50.7988 63.4747 50.3508 63.72C49.9134 63.9547 49.5614 64.3173 49.2948 64.808C49.0281 65.2987 48.8948 65.896 48.8948 66.6C48.8948 67.3147 49.0228 67.9173 49.2788 68.408C49.5454 68.8987 49.8974 69.2667 50.3348 69.512C50.7721 69.7467 51.2521 69.864 51.7748 69.864ZM62.4571 62.072C63.5238 62.072 64.3878 62.3973 65.0491 63.048C65.7105 63.688 66.0411 64.616 66.0411 65.832V71H64.6011V66.04C64.6011 65.1653 64.3825 64.4987 63.9451 64.04C63.5078 63.5707 62.9105 63.336 62.1531 63.336C61.3851 63.336 60.7718 63.576 60.3131 64.056C59.8651 64.536 59.6411 65.2347 59.6411 66.152V71H58.1851V62.232H59.6411V63.48C59.9291 63.032 60.3185 62.6853 60.8091 62.44C61.3105 62.1947 61.8598 62.072 62.4571 62.072ZM70.1955 63.432V68.6C70.1955 69.0267 70.2862 69.3307 70.4675 69.512C70.6488 69.6827 70.9635 69.768 71.4115 69.768H72.4835V71H71.1715C70.3608 71 69.7528 70.8133 69.3475 70.44C68.9422 70.0667 68.7395 69.4533 68.7395 68.6V63.432H67.6035V62.232H68.7395V60.024H70.1955V62.232H72.4835V63.432H70.1955ZM73.7036 66.584C73.7036 65.688 73.885 64.904 74.2476 64.232C74.6103 63.5493 75.1063 63.0213 75.7356 62.648C76.3756 62.2747 77.085 62.088 77.8636 62.088C78.6316 62.088 79.2983 62.2533 79.8636 62.584C80.429 62.9147 80.8503 63.3307 81.1276 63.832V62.232H82.5996V71H81.1276V69.368C80.8396 69.88 80.4076 70.3067 79.8316 70.648C79.2663 70.9787 78.605 71.144 77.8476 71.144C77.069 71.144 76.365 70.952 75.7356 70.568C75.1063 70.184 74.6103 69.6453 74.2476 68.952C73.885 68.2587 73.7036 67.4693 73.7036 66.584ZM81.1276 66.6C81.1276 65.9387 80.9943 65.3627 80.7276 64.872C80.461 64.3813 80.0983 64.008 79.6396 63.752C79.1916 63.4853 78.6956 63.352 78.1516 63.352C77.6076 63.352 77.1116 63.48 76.6636 63.736C76.2156 63.992 75.8583 64.3653 75.5916 64.856C75.325 65.3467 75.1916 65.9227 75.1916 66.584C75.1916 67.256 75.325 67.8427 75.5916 68.344C75.8583 68.8347 76.2156 69.2133 76.6636 69.48C77.1116 69.736 77.6076 69.864 78.1516 69.864C78.6956 69.864 79.1916 69.736 79.6396 69.48C80.0983 69.2133 80.461 68.8347 80.7276 68.344C80.9943 67.8427 81.1276 67.2613 81.1276 66.6ZM84.5161 66.6C84.5161 65.6933 84.6975 64.904 85.0601 64.232C85.4228 63.5493 85.9241 63.0213 86.5641 62.648C87.2148 62.2747 87.9561 62.088 88.7881 62.088C89.8655 62.088 90.7508 62.3493 91.4441 62.872C92.1481 63.3947 92.6121 64.12 92.8361 65.048H91.2681C91.1188 64.5147 90.8255 64.0933 90.3881 63.784C89.9615 63.4747 89.4281 63.32 88.7881 63.32C87.9561 63.32 87.2841 63.608 86.7721 64.184C86.2601 64.7493 86.0041 65.5547 86.0041 66.6C86.0041 67.656 86.2601 68.472 86.7721 69.048C87.2841 69.624 87.9561 69.912 88.7881 69.912C89.4281 69.912 89.9615 69.7627 90.3881 69.464C90.8148 69.1653 91.1081 68.7387 91.2681 68.184H92.8361C92.6015 69.08 92.1321 69.8 91.4281 70.344C90.7241 70.8773 89.8441 71.144 88.7881 71.144C87.9561 71.144 87.2148 70.9573 86.5641 70.584C85.9241 70.2107 85.4228 69.6827 85.0601 69C84.6975 68.3173 84.5161 67.5173 84.5161 66.6ZM96.5549 63.432V68.6C96.5549 69.0267 96.6455 69.3307 96.8269 69.512C97.0082 69.6827 97.3229 69.768 97.7709 69.768H98.8429V71H97.5309C96.7202 71 96.1122 70.8133 95.7069 70.44C95.3015 70.0667 95.0989 69.4533 95.0989 68.6V63.432H93.9629V62.232H95.0989V60.024H96.5549V62.232H98.8429V63.432H96.5549ZM108.607 60.744C109.791 60.744 110.82 60.968 111.695 61.416C112.57 61.864 113.242 62.4933 113.711 63.304C114.18 64.104 114.415 65.032 114.415 66.088C114.415 66.9307 114.276 67.7413 113.999 68.52C113.722 69.288 113.316 69.912 112.783 70.392C112.26 70.872 111.647 71.112 110.943 71.112C110.41 71.112 109.999 70.9787 109.711 70.712C109.423 70.4453 109.258 70.0827 109.215 69.624C108.884 70.0827 108.463 70.4453 107.951 70.712C107.45 70.9787 106.916 71.112 106.351 71.112C105.54 71.112 104.9 70.8667 104.431 70.376C103.972 69.8747 103.743 69.2027 103.743 68.36C103.743 67.56 103.908 66.8133 104.239 66.12C104.58 65.4267 105.05 64.872 105.647 64.456C106.244 64.0293 106.922 63.816 107.679 63.816C108.692 63.816 109.375 64.2 109.727 64.968L109.903 63.976H111.167L110.367 68.6C110.335 68.8027 110.319 68.9893 110.319 69.16C110.319 69.8 110.602 70.12 111.167 70.12C111.594 70.12 111.962 69.9173 112.271 69.512C112.591 69.1067 112.831 68.6 112.991 67.992C113.151 67.3733 113.231 66.7653 113.231 66.168C113.231 64.7707 112.81 63.688 111.967 62.92C111.135 62.152 109.956 61.768 108.431 61.768C107.162 61.768 106.015 62.0773 104.991 62.696C103.978 63.304 103.183 64.1413 102.607 65.208C102.031 66.2747 101.743 67.4533 101.743 68.744C101.732 70.152 102.154 71.2347 103.007 71.992C103.86 72.76 105.044 73.144 106.559 73.144C107.562 73.144 108.447 72.9627 109.215 72.6L109.407 73.592C108.458 73.9867 107.412 74.184 106.271 74.184C105.13 74.184 104.122 73.9653 103.247 73.528C102.383 73.1013 101.711 72.4827 101.231 71.672C100.762 70.872 100.527 69.9387 100.527 68.872C100.527 67.368 100.874 65.9973 101.567 64.76C102.26 63.512 103.22 62.5307 104.447 61.816C105.684 61.1013 107.071 60.744 108.607 60.744ZM106.783 69.976C107.263 69.976 107.706 69.8373 108.111 69.56C108.516 69.272 108.836 68.888 109.071 68.408C109.306 67.9173 109.423 67.384 109.423 66.808C109.423 66.2533 109.268 65.8053 108.959 65.464C108.66 65.112 108.234 64.936 107.679 64.936C107.167 64.936 106.714 65.0907 106.319 65.4C105.935 65.6987 105.636 66.0987 105.423 66.6C105.21 67.0907 105.103 67.6027 105.103 68.136C105.103 68.7013 105.247 69.1493 105.535 69.48C105.823 69.8107 106.239 69.976 106.783 69.976ZM128.49 62.232L125.754 71H124.25L122.138 64.04L120.026 71H118.522L115.77 62.232H117.258L119.274 69.592L121.45 62.232H122.938L125.066 69.608L127.05 62.232H128.49ZM137.935 66.28C137.935 66.5573 137.919 66.8507 137.887 67.16H130.879C130.932 68.024 131.226 68.7013 131.759 69.192C132.303 69.672 132.959 69.912 133.727 69.912C134.356 69.912 134.879 69.768 135.295 69.48C135.722 69.1813 136.02 68.7867 136.191 68.296H137.759C137.524 69.1387 137.055 69.8267 136.351 70.36C135.647 70.8827 134.772 71.144 133.727 71.144C132.895 71.144 132.148 70.9573 131.487 70.584C130.836 70.2107 130.324 69.6827 129.951 69C129.578 68.3067 129.391 67.5067 129.391 66.6C129.391 65.6933 129.572 64.8987 129.935 64.216C130.298 63.5333 130.804 63.0107 131.455 62.648C132.116 62.2747 132.874 62.088 133.727 62.088C134.559 62.088 135.295 62.2693 135.935 62.632C136.575 62.9947 137.066 63.496 137.407 64.136C137.759 64.7653 137.935 65.48 137.935 66.28ZM136.431 65.976C136.431 65.4213 136.308 64.9467 136.063 64.552C135.818 64.1467 135.482 63.8427 135.055 63.64C134.639 63.4267 134.175 63.32 133.663 63.32C132.927 63.32 132.298 63.5547 131.775 64.024C131.263 64.4933 130.97 65.144 130.895 65.976H136.431ZM141.313 63.864C141.612 63.3413 142.049 62.9147 142.625 62.584C143.201 62.2533 143.857 62.088 144.593 62.088C145.382 62.088 146.092 62.2747 146.721 62.648C147.35 63.0213 147.846 63.5493 148.209 64.232C148.572 64.904 148.753 65.688 148.753 66.584C148.753 67.4693 148.572 68.2587 148.209 68.952C147.846 69.6453 147.345 70.184 146.705 70.568C146.076 70.952 145.372 71.144 144.593 71.144C143.836 71.144 143.169 70.9787 142.593 70.648C142.028 70.3173 141.601 69.896 141.313 69.384V71H139.857V59.16H141.313V63.864ZM147.265 66.584C147.265 65.9227 147.132 65.3467 146.865 64.856C146.598 64.3653 146.236 63.992 145.777 63.736C145.329 63.48 144.833 63.352 144.289 63.352C143.756 63.352 143.26 63.4853 142.801 63.752C142.353 64.008 141.99 64.3867 141.713 64.888C141.446 65.3787 141.313 65.9493 141.313 66.6C141.313 67.2613 141.446 67.8427 141.713 68.344C141.99 68.8347 142.353 69.2133 142.801 69.48C143.26 69.736 143.756 69.864 144.289 69.864C144.833 69.864 145.329 69.736 145.777 69.48C146.236 69.2133 146.598 68.8347 146.865 68.344C147.132 67.8427 147.265 67.256 147.265 66.584ZM153.774 71.144C153.102 71.144 152.499 71.032 151.966 70.808C151.432 70.5733 151.011 70.2533 150.702 69.848C150.392 69.432 150.222 68.9573 150.19 68.424H151.694C151.736 68.8613 151.939 69.2187 152.302 69.496C152.675 69.7733 153.16 69.912 153.758 69.912C154.312 69.912 154.75 69.7893 155.07 69.544C155.39 69.2987 155.55 68.9893 155.55 68.616C155.55 68.232 155.379 67.9493 155.038 67.768C154.696 67.576 154.168 67.3893 153.454 67.208C152.803 67.0373 152.27 66.8667 151.854 66.696C151.448 66.5147 151.096 66.2533 150.798 65.912C150.51 65.56 150.366 65.1013 150.366 64.536C150.366 64.088 150.499 63.6773 150.766 63.304C151.032 62.9307 151.411 62.6373 151.902 62.424C152.392 62.2 152.952 62.088 153.582 62.088C154.552 62.088 155.336 62.3333 155.934 62.824C156.531 63.3147 156.851 63.9867 156.894 64.84H155.438C155.406 64.3813 155.219 64.0133 154.878 63.736C154.547 63.4587 154.099 63.32 153.534 63.32C153.011 63.32 152.595 63.432 152.286 63.656C151.976 63.88 151.822 64.1733 151.822 64.536C151.822 64.824 151.912 65.064 152.094 65.256C152.286 65.4373 152.52 65.5867 152.798 65.704C153.086 65.8107 153.48 65.9333 153.982 66.072C154.611 66.2427 155.123 66.4133 155.518 66.584C155.912 66.744 156.248 66.9893 156.526 67.32C156.814 67.6507 156.963 68.0827 156.974 68.616C156.974 69.096 156.84 69.528 156.574 69.912C156.307 70.296 155.928 70.6 155.438 70.824C154.958 71.0373 154.403 71.144 153.774 71.144ZM159.781 60.808C159.504 60.808 159.269 60.712 159.077 60.52C158.885 60.328 158.789 60.0933 158.789 59.816C158.789 59.5387 158.885 59.304 159.077 59.112C159.269 58.92 159.504 58.824 159.781 58.824C160.048 58.824 160.272 58.92 160.453 59.112C160.645 59.304 160.741 59.5387 160.741 59.816C160.741 60.0933 160.645 60.328 160.453 60.52C160.272 60.712 160.048 60.808 159.781 60.808ZM160.485 62.232V71H159.029V62.232H160.485ZM164.742 63.432V68.6C164.742 69.0267 164.833 69.3307 165.014 69.512C165.196 69.6827 165.51 69.768 165.958 69.768H167.03V71H165.718C164.908 71 164.3 70.8133 163.894 70.44C163.489 70.0667 163.286 69.4533 163.286 68.6V63.432H162.15V62.232H163.286V60.024H164.742V62.232H167.03V63.432H164.742ZM176.795 66.28C176.795 66.5573 176.779 66.8507 176.747 67.16H169.739C169.792 68.024 170.085 68.7013 170.619 69.192C171.163 69.672 171.819 69.912 172.587 69.912C173.216 69.912 173.739 69.768 174.155 69.48C174.581 69.1813 174.88 68.7867 175.051 68.296H176.619C176.384 69.1387 175.915 69.8267 175.211 70.36C174.507 70.8827 173.632 71.144 172.587 71.144C171.755 71.144 171.008 70.9573 170.347 70.584C169.696 70.2107 169.184 69.6827 168.811 69C168.437 68.3067 168.251 67.5067 168.251 66.6C168.251 65.6933 168.432 64.8987 168.795 64.216C169.157 63.5333 169.664 63.0107 170.315 62.648C170.976 62.2747 171.733 62.088 172.587 62.088C173.419 62.088 174.155 62.2693 174.795 62.632C175.435 62.9947 175.925 63.496 176.267 64.136C176.619 64.7653 176.795 65.48 176.795 66.28ZM175.291 65.976C175.291 65.4213 175.168 64.9467 174.923 64.552C174.677 64.1467 174.341 63.8427 173.915 63.64C173.499 63.4267 173.035 63.32 172.523 63.32C171.787 63.32 171.157 63.5547 170.635 64.024C170.123 64.4933 169.829 65.144 169.755 65.976H175.291ZM179.18 71.096C178.903 71.096 178.668 71 178.476 70.808C178.284 70.616 178.188 70.3813 178.188 70.104C178.188 69.8267 178.284 69.592 178.476 69.4C178.668 69.208 178.903 69.112 179.18 69.112C179.447 69.112 179.671 69.208 179.852 69.4C180.044 69.592 180.14 69.8267 180.14 70.104C180.14 70.3813 180.044 70.616 179.852 70.808C179.671 71 179.447 71.096 179.18 71.096ZM181.532 66.6C181.532 65.6933 181.713 64.904 182.076 64.232C182.438 63.5493 182.94 63.0213 183.58 62.648C184.23 62.2747 184.972 62.088 185.804 62.088C186.881 62.088 187.766 62.3493 188.46 62.872C189.164 63.3947 189.628 64.12 189.852 65.048H188.284C188.134 64.5147 187.841 64.0933 187.404 63.784C186.977 63.4747 186.444 63.32 185.804 63.32C184.972 63.32 184.3 63.608 183.788 64.184C183.276 64.7493 183.02 65.5547 183.02 66.6C183.02 67.656 183.276 68.472 183.788 69.048C184.3 69.624 184.972 69.912 185.804 69.912C186.444 69.912 186.977 69.7627 187.404 69.464C187.83 69.1653 188.124 68.7387 188.284 68.184H189.852C189.617 69.08 189.148 69.8 188.444 70.344C187.74 70.8773 186.86 71.144 185.804 71.144C184.972 71.144 184.23 70.9573 183.58 70.584C182.94 70.2107 182.438 69.6827 182.076 69C181.713 68.3173 181.532 67.5173 181.532 66.6ZM195.619 71.144C194.797 71.144 194.051 70.9573 193.379 70.584C192.717 70.2107 192.195 69.6827 191.811 69C191.437 68.3067 191.251 67.5067 191.251 66.6C191.251 65.704 191.443 64.9147 191.827 64.232C192.221 63.5387 192.755 63.0107 193.427 62.648C194.099 62.2747 194.851 62.088 195.683 62.088C196.515 62.088 197.267 62.2747 197.939 62.648C198.611 63.0107 199.139 63.5333 199.523 64.216C199.917 64.8987 200.115 65.6933 200.115 66.6C200.115 67.5067 199.912 68.3067 199.507 69C199.112 69.6827 198.573 70.2107 197.891 70.584C197.208 70.9573 196.451 71.144 195.619 71.144ZM195.619 69.864C196.141 69.864 196.632 69.7413 197.091 69.496C197.549 69.2507 197.917 68.8827 198.195 68.392C198.483 67.9013 198.627 67.304 198.627 66.6C198.627 65.896 198.488 65.2987 198.211 64.808C197.933 64.3173 197.571 63.9547 197.123 63.72C196.675 63.4747 196.189 63.352 195.667 63.352C195.133 63.352 194.643 63.4747 194.195 63.72C193.757 63.9547 193.405 64.3173 193.139 64.808C192.872 65.2987 192.739 65.896 192.739 66.6C192.739 67.3147 192.867 67.9173 193.123 68.408C193.389 68.8987 193.741 69.2667 194.179 69.512C194.616 69.7467 195.096 69.864 195.619 69.864ZM212.573 62.072C213.256 62.072 213.864 62.216 214.397 62.504C214.93 62.7813 215.352 63.2027 215.661 63.768C215.97 64.3333 216.125 65.0213 216.125 65.832V71H214.685V66.04C214.685 65.1653 214.466 64.4987 214.029 64.04C213.602 63.5707 213.021 63.336 212.285 63.336C211.528 63.336 210.925 63.5813 210.477 64.072C210.029 64.552 209.805 65.2507 209.805 66.168V71H208.365V66.04C208.365 65.1653 208.146 64.4987 207.709 64.04C207.282 63.5707 206.701 63.336 205.965 63.336C205.208 63.336 204.605 63.5813 204.157 64.072C203.709 64.552 203.485 65.2507 203.485 66.168V71H202.029V62.232H203.485V63.496C203.773 63.0373 204.157 62.6853 204.637 62.44C205.128 62.1947 205.666 62.072 206.253 62.072C206.989 62.072 207.64 62.2373 208.205 62.568C208.77 62.8987 209.192 63.384 209.469 64.024C209.714 63.4053 210.12 62.9253 210.685 62.584C211.25 62.2427 211.88 62.072 212.573 62.072Z" fill="#282938"/>
<path d="M40.402 29.146V32.818H44.722V34.492H40.402V38.326H45.262V40H38.35V27.472H45.262V29.146H40.402ZM59.7955 29.92C60.5755 29.92 61.2715 30.082 61.8835 30.406C62.5075 30.73 62.9935 31.21 63.3415 31.846C63.7015 32.482 63.8815 33.25 63.8815 34.15V40H61.8475V34.456C61.8475 33.568 61.6255 32.89 61.1815 32.422C60.7375 31.942 60.1315 31.702 59.3635 31.702C58.5955 31.702 57.9835 31.942 57.5275 32.422C57.0835 32.89 56.8615 33.568 56.8615 34.456V40H54.8275V34.456C54.8275 33.568 54.6055 32.89 54.1615 32.422C53.7175 31.942 53.1115 31.702 52.3435 31.702C51.5755 31.702 50.9635 31.942 50.5075 32.422C50.0635 32.89 49.8415 33.568 49.8415 34.456V40H47.7895V30.082H49.8415V31.216C50.1775 30.808 50.6035 30.49 51.1195 30.262C51.6355 30.034 52.1875 29.92 52.7755 29.92C53.5675 29.92 54.2755 30.088 54.8995 30.424C55.5235 30.76 56.0035 31.246 56.3395 31.882C56.6395 31.282 57.1075 30.808 57.7435 30.46C58.3795 30.1 59.0635 29.92 59.7955 29.92ZM65.8086 34.996C65.8086 34 66.0126 33.118 66.4206 32.35C66.8406 31.582 67.4046 30.988 68.1126 30.568C68.8326 30.136 69.6246 29.92 70.4886 29.92C71.2686 29.92 71.9466 30.076 72.5226 30.388C73.1106 30.688 73.5786 31.066 73.9266 31.522V30.082H75.9966V40H73.9266V38.524C73.5786 38.992 73.1046 39.382 72.5046 39.694C71.9046 40.006 71.2206 40.162 70.4526 40.162C69.6006 40.162 68.8206 39.946 68.1126 39.514C67.4046 39.07 66.8406 38.458 66.4206 37.678C66.0126 36.886 65.8086 35.992 65.8086 34.996ZM73.9266 35.032C73.9266 34.348 73.7826 33.754 73.4946 33.25C73.2186 32.746 72.8526 32.362 72.3966 32.098C71.9406 31.834 71.4486 31.702 70.9206 31.702C70.3926 31.702 69.9006 31.834 69.4446 32.098C68.9886 32.35 68.6166 32.728 68.3286 33.232C68.0526 33.724 67.9146 34.312 67.9146 34.996C67.9146 35.68 68.0526 36.28 68.3286 36.796C68.6166 37.312 68.9886 37.708 69.4446 37.984C69.9126 38.248 70.4046 38.38 70.9206 38.38C71.4486 38.38 71.9406 38.248 72.3966 37.984C72.8526 37.72 73.2186 37.336 73.4946 36.832C73.7826 36.316 73.9266 35.716 73.9266 35.032ZM79.7358 28.768C79.3638 28.768 79.0518 28.642 78.7998 28.39C78.5478 28.138 78.4218 27.826 78.4218 27.454C78.4218 27.082 78.5478 26.77 78.7998 26.518C79.0518 26.266 79.3638 26.14 79.7358 26.14C80.0958 26.14 80.4018 26.266 80.6538 26.518C80.9058 26.77 81.0318 27.082 81.0318 27.454C81.0318 27.826 80.9058 28.138 80.6538 28.39C80.4018 28.642 80.0958 28.768 79.7358 28.768ZM80.7438 30.082V40H78.6918V30.082H80.7438ZM85.4899 26.68V40H83.4379V26.68H85.4899ZM104.866 29.92C105.646 29.92 106.342 30.082 106.954 30.406C107.578 30.73 108.064 31.21 108.412 31.846C108.772 32.482 108.952 33.25 108.952 34.15V40H106.918V34.456C106.918 33.568 106.696 32.89 106.252 32.422C105.808 31.942 105.202 31.702 104.434 31.702C103.666 31.702 103.054 31.942 102.598 32.422C102.154 32.89 101.932 33.568 101.932 34.456V40H99.8978V34.456C99.8978 33.568 99.6758 32.89 99.2318 32.422C98.7878 31.942 98.1818 31.702 97.4138 31.702C96.6458 31.702 96.0338 31.942 95.5778 32.422C95.1338 32.89 94.9118 33.568 94.9118 34.456V40H92.8598V30.082H94.9118V31.216C95.2478 30.808 95.6738 30.49 96.1898 30.262C96.7058 30.034 97.2578 29.92 97.8458 29.92C98.6378 29.92 99.3458 30.088 99.9698 30.424C100.594 30.76 101.074 31.246 101.41 31.882C101.71 31.282 102.178 30.808 102.814 30.46C103.45 30.1 104.134 29.92 104.866 29.92ZM120.653 34.798C120.653 35.17 120.629 35.506 120.581 35.806H113.003C113.063 36.598 113.357 37.234 113.885 37.714C114.413 38.194 115.061 38.434 115.829 38.434C116.933 38.434 117.713 37.972 118.169 37.048H120.383C120.083 37.96 119.537 38.71 118.745 39.298C117.965 39.874 116.993 40.162 115.829 40.162C114.881 40.162 114.029 39.952 113.273 39.532C112.529 39.1 111.941 38.5 111.509 37.732C111.089 36.952 110.879 36.052 110.879 35.032C110.879 34.012 111.083 33.118 111.491 32.35C111.911 31.57 112.493 30.97 113.237 30.55C113.993 30.13 114.857 29.92 115.829 29.92C116.765 29.92 117.599 30.124 118.331 30.532C119.063 30.94 119.633 31.516 120.041 32.26C120.449 32.992 120.653 33.838 120.653 34.798ZM118.511 34.15C118.499 33.394 118.229 32.788 117.701 32.332C117.173 31.876 116.519 31.648 115.739 31.648C115.031 31.648 114.425 31.876 113.921 32.332C113.417 32.776 113.117 33.382 113.021 34.15H118.511ZM126.664 34.996C126.664 34 126.868 33.118 127.276 32.35C127.696 31.582 128.26 30.988 128.968 30.568C129.688 30.136 130.48 29.92 131.344 29.92C132.124 29.92 132.802 30.076 133.378 30.388C133.966 30.688 134.434 31.066 134.782 31.522V30.082H136.852V40H134.782V38.524C134.434 38.992 133.96 39.382 133.36 39.694C132.76 40.006 132.076 40.162 131.308 40.162C130.456 40.162 129.676 39.946 128.968 39.514C128.26 39.07 127.696 38.458 127.276 37.678C126.868 36.886 126.664 35.992 126.664 34.996ZM134.782 35.032C134.782 34.348 134.638 33.754 134.35 33.25C134.074 32.746 133.708 32.362 133.252 32.098C132.796 31.834 132.304 31.702 131.776 31.702C131.248 31.702 130.756 31.834 130.3 32.098C129.844 32.35 129.472 32.728 129.184 33.232C128.908 33.724 128.77 34.312 128.77 34.996C128.77 35.68 128.908 36.28 129.184 36.796C129.472 37.312 129.844 37.708 130.3 37.984C130.768 38.248 131.26 38.38 131.776 38.38C132.304 38.38 132.796 38.248 133.252 37.984C133.708 37.72 134.074 37.336 134.35 36.832C134.638 36.316 134.782 35.716 134.782 35.032ZM141.941 31.756V37.246C141.941 37.618 142.025 37.888 142.193 38.056C142.373 38.212 142.673 38.29 143.093 38.29H144.353V40H142.733C141.809 40 141.101 39.784 140.609 39.352C140.117 38.92 139.871 38.218 139.871 37.246V31.756H138.701V30.082H139.871V27.616H141.941V30.082H144.353V31.756H141.941Z" fill="#282938"/>
<path opacity="0.8" d="M247.992 64.096C247.992 62.2613 248.291 60.832 248.888 59.808C249.485 58.7733 250.531 58.256 252.024 58.256C253.507 58.256 254.547 58.7733 255.144 59.808C255.741 60.832 256.04 62.2613 256.04 64.096C256.04 65.9627 255.741 67.4133 255.144 68.448C254.547 69.4827 253.507 70 252.024 70C250.531 70 249.485 69.4827 248.888 68.448C248.291 67.4133 247.992 65.9627 247.992 64.096ZM254.6 64.096C254.6 63.168 254.536 62.384 254.408 61.744C254.291 61.0933 254.04 60.5707 253.656 60.176C253.283 59.7813 252.739 59.584 252.024 59.584C251.299 59.584 250.744 59.7813 250.36 60.176C249.987 60.5707 249.736 61.0933 249.608 61.744C249.491 62.384 249.432 63.168 249.432 64.096C249.432 65.056 249.491 65.8613 249.608 66.512C249.736 67.1627 249.987 67.6853 250.36 68.08C250.744 68.4747 251.299 68.672 252.024 68.672C252.739 68.672 253.283 68.4747 253.656 68.08C254.04 67.6853 254.291 67.1627 254.408 66.512C254.536 65.8613 254.6 65.056 254.6 64.096ZM259.911 66.896C260.018 67.504 260.263 67.9733 260.647 68.304C261.042 68.6347 261.57 68.8 262.231 68.8C263.116 68.8 263.767 68.4533 264.183 67.76C264.61 67.0667 264.812 65.8987 264.791 64.256C264.567 64.736 264.194 65.1147 263.671 65.392C263.148 65.6587 262.567 65.792 261.927 65.792C261.212 65.792 260.572 65.648 260.007 65.36C259.452 65.0613 259.015 64.6293 258.695 64.064C258.375 63.4987 258.215 62.816 258.215 62.016C258.215 60.8747 258.546 59.9573 259.207 59.264C259.868 58.56 260.807 58.208 262.023 58.208C263.516 58.208 264.562 58.6933 265.159 59.664C265.767 60.6347 266.071 62.08 266.071 64C266.071 65.344 265.948 66.4533 265.703 67.328C265.468 68.2027 265.063 68.8693 264.487 69.328C263.922 69.7867 263.143 70.016 262.151 70.016C261.063 70.016 260.215 69.7227 259.607 69.136C258.999 68.5493 258.652 67.8027 258.567 66.896H259.911ZM262.167 64.56C262.882 64.56 263.468 64.3413 263.927 63.904C264.386 63.456 264.615 62.8533 264.615 62.096C264.615 61.296 264.391 60.6507 263.943 60.16C263.495 59.6693 262.866 59.424 262.055 59.424C261.308 59.424 260.711 59.6587 260.263 60.128C259.826 60.5973 259.607 61.216 259.607 61.984C259.607 62.7627 259.826 63.3867 260.263 63.856C260.7 64.3253 261.335 64.56 262.167 64.56ZM267.941 68.832C269.296 67.744 270.357 66.8533 271.125 66.16C271.893 65.456 272.538 64.7253 273.061 63.968C273.594 63.2 273.861 62.448 273.861 61.712C273.861 61.0187 273.69 60.4747 273.349 60.08C273.018 59.6747 272.48 59.472 271.733 59.472C271.008 59.472 270.442 59.7013 270.037 60.16C269.642 60.608 269.429 61.2107 269.397 61.968H267.989C268.032 60.7733 268.394 59.8507 269.077 59.2C269.76 58.5493 270.64 58.224 271.717 58.224C272.816 58.224 273.685 58.528 274.325 59.136C274.976 59.744 275.301 60.5813 275.301 61.648C275.301 62.5333 275.034 63.3973 274.501 64.24C273.978 65.072 273.381 65.808 272.709 66.448C272.037 67.0773 271.178 67.8133 270.133 68.656H275.637V69.872H267.941V68.832ZM284.44 59.568L279.992 70H278.52L283.032 59.712H276.856V58.464H284.44V59.568ZM296.768 61.184C296.533 60 295.803 59.408 294.576 59.408C293.627 59.408 292.917 59.776 292.448 60.512C291.979 61.2373 291.749 62.4373 291.76 64.112C292.005 63.5573 292.411 63.1253 292.976 62.816C293.552 62.496 294.192 62.336 294.896 62.336C295.995 62.336 296.869 62.6773 297.52 63.36C298.181 64.0427 298.512 64.9867 298.512 66.192C298.512 66.9173 298.368 67.568 298.08 68.144C297.803 68.72 297.376 69.1787 296.8 69.52C296.235 69.8613 295.547 70.032 294.736 70.032C293.637 70.032 292.779 69.7867 292.16 69.296C291.541 68.8053 291.109 68.128 290.864 67.264C290.619 66.4 290.496 65.3333 290.496 64.064C290.496 60.1493 291.861 58.192 294.592 58.192C295.637 58.192 296.459 58.4747 297.056 59.04C297.653 59.6053 298.005 60.32 298.112 61.184H296.768ZM294.592 63.568C294.133 63.568 293.701 63.664 293.296 63.856C292.891 64.0373 292.56 64.32 292.304 64.704C292.059 65.0773 291.936 65.536 291.936 66.08C291.936 66.8907 292.171 67.552 292.64 68.064C293.109 68.5653 293.781 68.816 294.656 68.816C295.403 68.816 295.995 68.5867 296.432 68.128C296.88 67.6587 297.104 67.0293 297.104 66.24C297.104 65.408 296.891 64.7573 296.464 64.288C296.037 63.808 295.413 63.568 294.592 63.568ZM300.3 68.832C301.655 67.744 302.716 66.8533 303.484 66.16C304.252 65.456 304.898 64.7253 305.42 63.968C305.954 63.2 306.22 62.448 306.22 61.712C306.22 61.0187 306.05 60.4747 305.708 60.08C305.378 59.6747 304.839 59.472 304.092 59.472C303.367 59.472 302.802 59.7013 302.396 60.16C302.002 60.608 301.788 61.2107 301.756 61.968H300.348C300.391 60.7733 300.754 59.8507 301.436 59.2C302.119 58.5493 302.999 58.224 304.076 58.224C305.175 58.224 306.044 58.528 306.684 59.136C307.335 59.744 307.66 60.5813 307.66 61.648C307.66 62.5333 307.394 63.3973 306.86 64.24C306.338 65.072 305.74 65.808 305.068 66.448C304.396 67.0773 303.538 67.8133 302.492 68.656H307.996V69.872H300.3V68.832ZM316.8 59.568L312.352 70H310.88L315.392 59.712H309.215V58.464H316.8V59.568ZM325.534 59.568L321.086 70H319.614L324.126 59.712H317.95V58.464H325.534V59.568ZM331.238 68.832C332.593 67.744 333.654 66.8533 334.422 66.16C335.19 65.456 335.835 64.7253 336.358 63.968C336.891 63.2 337.158 62.448 337.158 61.712C337.158 61.0187 336.987 60.4747 336.646 60.08C336.315 59.6747 335.777 59.472 335.03 59.472C334.305 59.472 333.739 59.7013 333.334 60.16C332.939 60.608 332.726 61.2107 332.694 61.968H331.286C331.329 60.7733 331.691 59.8507 332.374 59.2C333.057 58.5493 333.937 58.224 335.014 58.224C336.113 58.224 336.982 58.528 337.622 59.136C338.273 59.744 338.598 60.5813 338.598 61.648C338.598 62.5333 338.331 63.3973 337.798 64.24C337.275 65.072 336.678 65.808 336.006 66.448C335.334 67.0773 334.475 67.8133 333.43 68.656H338.934V69.872H331.238V68.832ZM342.729 63.984C342.132 63.7493 341.673 63.408 341.353 62.96C341.033 62.512 340.873 61.968 340.873 61.328C340.873 60.752 341.017 60.2347 341.305 59.776C341.593 59.3067 342.02 58.9387 342.585 58.672C343.161 58.3947 343.854 58.256 344.665 58.256C345.476 58.256 346.164 58.3947 346.729 58.672C347.305 58.9387 347.737 59.3067 348.025 59.776C348.324 60.2347 348.473 60.752 348.473 61.328C348.473 61.9467 348.308 62.4907 347.977 62.96C347.646 63.4187 347.193 63.76 346.617 63.984C347.278 64.1867 347.801 64.544 348.185 65.056C348.58 65.5573 348.777 66.1653 348.777 66.88C348.777 67.5733 348.606 68.1813 348.265 68.704C347.924 69.216 347.438 69.616 346.809 69.904C346.19 70.1813 345.476 70.32 344.665 70.32C343.854 70.32 343.14 70.1813 342.521 69.904C341.913 69.616 341.438 69.216 341.097 68.704C340.756 68.1813 340.585 67.5733 340.585 66.88C340.585 66.1653 340.777 65.552 341.161 65.04C341.545 64.528 342.068 64.176 342.729 63.984ZM347.065 61.504C347.065 60.8533 346.852 60.352 346.425 60C345.998 59.648 345.412 59.472 344.665 59.472C343.929 59.472 343.348 59.648 342.921 60C342.494 60.352 342.281 60.8587 342.281 61.52C342.281 62.1173 342.5 62.5973 342.937 62.96C343.385 63.3227 343.961 63.504 344.665 63.504C345.38 63.504 345.956 63.3227 346.393 62.96C346.841 62.5867 347.065 62.1013 347.065 61.504ZM344.665 64.624C343.876 64.624 343.23 64.8107 342.729 65.184C342.228 65.5467 341.977 66.096 341.977 66.832C341.977 67.5147 342.217 68.064 342.697 68.48C343.188 68.896 343.844 69.104 344.665 69.104C345.486 69.104 346.137 68.896 346.617 68.48C347.097 68.064 347.337 67.5147 347.337 66.832C347.337 66.1173 347.092 65.5733 346.601 65.2C346.11 64.816 345.465 64.624 344.665 64.624ZM358.087 59.696H352.471V63.344C352.716 63.0027 353.079 62.7253 353.559 62.512C354.039 62.288 354.556 62.176 355.111 62.176C355.996 62.176 356.716 62.3627 357.271 62.736C357.825 63.0987 358.22 63.5733 358.455 64.16C358.7 64.736 358.823 65.3493 358.823 66C358.823 66.768 358.679 67.456 358.391 68.064C358.103 68.672 357.66 69.152 357.063 69.504C356.476 69.856 355.745 70.032 354.871 70.032C353.751 70.032 352.844 69.744 352.151 69.168C351.457 68.592 351.036 67.824 350.887 66.864H352.311C352.449 67.472 352.743 67.9467 353.191 68.288C353.639 68.6293 354.204 68.8 354.887 68.8C355.729 68.8 356.364 68.5493 356.791 68.048C357.217 67.536 357.431 66.864 357.431 66.032C357.431 65.2 357.217 64.56 356.791 64.112C356.364 63.6533 355.735 63.424 354.903 63.424C354.337 63.424 353.841 63.5627 353.415 63.84C352.999 64.1067 352.695 64.4747 352.503 64.944H351.127V58.416H358.087V59.696ZM360.582 68.832C361.936 67.744 362.998 66.8533 363.766 66.16C364.534 65.456 365.179 64.7253 365.702 63.968C366.235 63.2 366.502 62.448 366.502 61.712C366.502 61.0187 366.331 60.4747 365.99 60.08C365.659 59.6747 365.12 59.472 364.374 59.472C363.648 59.472 363.083 59.7013 362.678 60.16C362.283 60.608 362.07 61.2107 362.038 61.968H360.63C360.672 60.7733 361.035 59.8507 361.718 59.2C362.4 58.5493 363.28 58.224 364.358 58.224C365.456 58.224 366.326 58.528 366.966 59.136C367.616 59.744 367.942 60.5813 367.942 61.648C367.942 62.5333 367.675 63.3973 367.142 64.24C366.619 65.072 366.022 65.808 365.35 66.448C364.678 67.0773 363.819 67.8133 362.774 68.656H368.278V69.872H360.582V68.832ZM377.337 59.696H371.721V63.344C371.966 63.0027 372.329 62.7253 372.809 62.512C373.289 62.288 373.806 62.176 374.361 62.176C375.246 62.176 375.966 62.3627 376.521 62.736C377.075 63.0987 377.47 63.5733 377.705 64.16C377.95 64.736 378.073 65.3493 378.073 66C378.073 66.768 377.929 67.456 377.641 68.064C377.353 68.672 376.91 69.152 376.313 69.504C375.726 69.856 374.995 70.032 374.121 70.032C373.001 70.032 372.094 69.744 371.401 69.168C370.707 68.592 370.286 67.824 370.137 66.864H371.561C371.699 67.472 371.993 67.9467 372.441 68.288C372.889 68.6293 373.454 68.8 374.137 68.8C374.979 68.8 375.614 68.5493 376.041 68.048C376.467 67.536 376.681 66.864 376.681 66.032C376.681 65.2 376.467 64.56 376.041 64.112C375.614 63.6533 374.985 63.424 374.153 63.424C373.587 63.424 373.091 63.5627 372.665 63.84C372.249 64.1067 371.945 64.4747 371.753 64.944H370.377V58.416H377.337V59.696Z" fill="#282938"/>
<path d="M247.666 32.718C247.666 31.494 247.948 30.396 248.512 29.424C249.088 28.452 249.862 27.696 250.834 27.156C251.818 26.604 252.892 26.328 254.056 26.328C255.388 26.328 256.57 26.658 257.602 27.318C258.646 27.966 259.402 28.89 259.87 30.09H257.404C257.08 29.43 256.63 28.938 256.054 28.614C255.478 28.29 254.812 28.128 254.056 28.128C253.228 28.128 252.49 28.314 251.842 28.686C251.194 29.058 250.684 29.592 250.312 30.288C249.952 30.984 249.772 31.794 249.772 32.718C249.772 33.642 249.952 34.452 250.312 35.148C250.684 35.844 251.194 36.384 251.842 36.768C252.49 37.14 253.228 37.326 254.056 37.326C254.812 37.326 255.478 37.164 256.054 36.84C256.63 36.516 257.08 36.024 257.404 35.364H259.87C259.402 36.564 258.646 37.488 257.602 38.136C256.57 38.784 255.388 39.108 254.056 39.108C252.88 39.108 251.806 38.838 250.834 38.298C249.862 37.746 249.088 36.984 248.512 36.012C247.948 35.04 247.666 33.942 247.666 32.718ZM261.588 33.996C261.588 33 261.792 32.118 262.2 31.35C262.62 30.582 263.184 29.988 263.892 29.568C264.612 29.136 265.404 28.92 266.268 28.92C267.048 28.92 267.726 29.076 268.302 29.388C268.89 29.688 269.358 30.066 269.706 30.522V29.082H271.776V39H269.706V37.524C269.358 37.992 268.884 38.382 268.284 38.694C267.684 39.006 267 39.162 266.232 39.162C265.38 39.162 264.6 38.946 263.892 38.514C263.184 38.07 262.62 37.458 262.2 36.678C261.792 35.886 261.588 34.992 261.588 33.996ZM269.706 34.032C269.706 33.348 269.562 32.754 269.274 32.25C268.998 31.746 268.632 31.362 268.176 31.098C267.72 30.834 267.228 30.702 266.7 30.702C266.172 30.702 265.68 30.834 265.224 31.098C264.768 31.35 264.396 31.728 264.108 32.232C263.832 32.724 263.694 33.312 263.694 33.996C263.694 34.68 263.832 35.28 264.108 35.796C264.396 36.312 264.768 36.708 265.224 36.984C265.692 37.248 266.184 37.38 266.7 37.38C267.228 37.38 267.72 37.248 268.176 36.984C268.632 36.72 268.998 36.336 269.274 35.832C269.562 35.316 269.706 34.716 269.706 34.032ZM276.523 25.68V39H274.471V25.68H276.523ZM281.269 25.68V39H279.217V25.68H281.269ZM297.621 29.082V39H295.569V37.83C295.245 38.238 294.819 38.562 294.291 38.802C293.775 39.03 293.223 39.144 292.635 39.144C291.855 39.144 291.153 38.982 290.529 38.658C289.917 38.334 289.431 37.854 289.071 37.218C288.723 36.582 288.549 35.814 288.549 34.914V29.082H290.583V34.608C290.583 35.496 290.805 36.18 291.249 36.66C291.693 37.128 292.299 37.362 293.067 37.362C293.835 37.362 294.441 37.128 294.885 36.66C295.341 36.18 295.569 35.496 295.569 34.608V29.082H297.621ZM303.929 39.162C303.149 39.162 302.447 39.024 301.823 38.748C301.211 38.46 300.725 38.076 300.365 37.596C300.005 37.104 299.813 36.558 299.789 35.958H301.913C301.949 36.378 302.147 36.732 302.507 37.02C302.879 37.296 303.341 37.434 303.893 37.434C304.469 37.434 304.913 37.326 305.225 37.11C305.549 36.882 305.711 36.594 305.711 36.246C305.711 35.874 305.531 35.598 305.171 35.418C304.823 35.238 304.265 35.04 303.497 34.824C302.753 34.62 302.147 34.422 301.679 34.23C301.211 34.038 300.803 33.744 300.455 33.348C300.119 32.952 299.951 32.43 299.951 31.782C299.951 31.254 300.107 30.774 300.419 30.342C300.731 29.898 301.175 29.55 301.751 29.298C302.339 29.046 303.011 28.92 303.767 28.92C304.895 28.92 305.801 29.208 306.485 29.784C307.181 30.348 307.553 31.122 307.601 32.106H305.549C305.513 31.662 305.333 31.308 305.009 31.044C304.685 30.78 304.247 30.648 303.695 30.648C303.155 30.648 302.741 30.75 302.453 30.954C302.165 31.158 302.021 31.428 302.021 31.764C302.021 32.028 302.117 32.25 302.309 32.43C302.501 32.61 302.735 32.754 303.011 32.862C303.287 32.958 303.695 33.084 304.235 33.24C304.955 33.432 305.543 33.63 305.999 33.834C306.467 34.026 306.869 34.314 307.205 34.698C307.541 35.082 307.715 35.592 307.727 36.228C307.727 36.792 307.571 37.296 307.259 37.74C306.947 38.184 306.503 38.532 305.927 38.784C305.363 39.036 304.697 39.162 303.929 39.162Z" fill="#282938"/>
</svg>
